<svg xmlns="http://www.w3.org/2000/svg" viewBox="0 0 374.443 33.175"><g fill="#040D0B"><path d="M35.866 31.808c-1.222-.46-2.34-1.236-3.362-2.347-1.024-1.108-2.46-3.135-4.28-6.05-1.622-2.623-3.02-4.522-4.228-5.714-.9-.888-1.95-1.634-3.143-2.237 2.11-.305 3.79-.936 5.018-1.934 1.486-1.207 2.236-2.934 2.23-5.053 0-1.275-.277-2.446-.836-3.49-.556-1.04-1.346-1.92-2.354-2.63-1.01-.71-2.236-1.247-3.674-1.617C19.796.366 18.174.18 16.37.18c-.978 0-1.97.046-2.976.138L10.23.59h-.005c-1.342.134-2.847.2-4.51.2-1.05 0-1.973-.02-2.762-.066l-2-.113H.94C.788.61.607.605.4.59L0 .562v1.413l.306.06c1.458.275 2.49.792 3.14 1.51l.003.005c.36.39.608.853.746 1.416.138.56.216 1.54.216 2.898v17.08c.008 2.123-.307 3.513-.78 4.088v.003l-.004.004c-.667.883-1.745 1.47-3.313 1.733l-.315.05v1.396h15.14v-1.4l-.32-.05c-1.528-.232-2.632-.742-3.356-1.49-.41-.456-.683-.96-.826-1.532-.145-.577-.227-1.524-.226-2.805V16.02h3.56c1.02 0 1.81.1 2.35.276.534.174.99.49 1.39.977.404.494.902 1.332 1.468 2.495l1.198 2.508v.003c.963 1.97 2.088 3.723 3.376 5.256 1.288 1.533 2.667 2.76 4.14 3.675l.002.003c1.176.71 2.363 1.21 3.56 1.49 1.19.28 2.612.434 4.274.464l.383.008V31.9l-.247-.092zM9.04 2.473l-.15.11-.005.002-.003.002c-.456.35-.768.64-.948.952-.178.315-.24.698-.242 1.157 0 .22-.004.377-.01.444-.008.102-.012.203-.012.302v21.92c0 .1.004.2.013.296v-.004c.005.058.01.22.01.455 0 .49.07.894.272 1.22.197.303.54.603 1.05.984h-4.34c.524-.38.868-.672 1.064-.977.19-.318.252-.715.258-1.206.016-.262.023-.518.023-.768V5.442c0-.25-.007-.504-.022-.768-.004-.483-.08-.893-.28-1.224-.208-.335-.562-.635-1.074-.98l-.195-.14c.608.017 1.136.027 1.558.027 1 0 2.12-.042 3.336-.116l-.303.233zm14.32 1.872c1.116 1.164 1.657 2.485 1.66 4.04 0 .704-.136 1.375-.41 2.025-.276.65-.667 1.225-1.177 1.735s-1.165.97-1.974 1.38l-.02.007c.316-.32.605-.655.834-1.026.695-1.124 1.03-2.544 1.03-4.235 0-.99-.16-1.92-.477-2.786-.317-.867-.788-1.645-1.41-2.33-.138-.152-.31-.282-.462-.425.93.397 1.74.923 2.406 1.615zm-4.4 9.27h-.003c-.922.48-2.565.754-4.873.75H10.41V6.892c-.002-1.55.208-2.663.564-3.302.325-.58.787-1.004 1.424-1.3.637-.294 1.453-.452 2.455-.452 1.352 0 2.533.28 3.568.827 1.036.55 1.83 1.315 2.41 2.31.574 1 .864 2.118.864 3.388 0 1.232-.248 2.303-.737 3.23-.49.93-1.148 1.592-1.997 2.024zm7.905 14.79c-1.807-1.59-3.52-3.947-5.117-7.07-.15-.333-.307-.65-.466-.955l-.485-.924c-.545-1.075-.92-1.775-1.147-2.134l-.002-.004c-.09-.14-.206-.28-.308-.42.298.187.597.37.873.583.752.58 1.513 1.355 2.274 2.332.763.978 1.626 2.27 2.587 3.876v.002c1.03 1.693 1.765 2.85 2.223 3.485.46.638 1.082 1.378 1.873 2.23l.007.007.006.006c.546.534 1.026.95 1.472 1.3-1.38-.556-2.65-1.31-3.79-2.312zM59.66.59v1.397l.318.048c1.414.217 2.56.763 3.486 1.642 1.067 1.01 1.646 2.736 1.646 5.25v10.518c0 2.475-.286 4.395-.832 5.74-.7 1.724-1.727 3.035-3.088 3.972-1.36.934-2.968 1.403-4.866 1.405-1.296 0-2.535-.243-3.727-.73-1.19-.487-2.158-1.15-2.916-1.996-1.4-1.557-2.128-3.768-2.144-6.695V7.864c0-1.146.064-2.027.186-2.618.118-.582.34-1.074.662-1.493.705-.867 1.87-1.454 3.563-1.717l.317-.05V.59H37.127v1.395l.315.05c1.422.233 2.445.744 3.128 1.51l.01.01-.008-.01c.38.42.63.91.762 1.494.133.59.207 1.543.205 2.824v10.88c0 3.335.42 5.916 1.304 7.764.654 1.357 1.54 2.52 2.648 3.482 1.107.96 2.4 1.693 3.867 2.197 1.47.505 3.075.756 4.815.755 1.633 0 3.165-.223 4.592-.673 1.428-.45 2.695-1.113 3.797-1.988 1.102-.873 2.006-1.94 2.706-3.186.533-.957.917-2.013 1.15-3.163.232-1.155.345-2.652.346-4.51V8.384c0-1.316.134-2.398.392-3.238.255-.835.66-1.484 1.213-1.977.558-.495 1.313-.88 2.28-1.14l.278-.075V.59H59.66zM46.74 29.024c-1.877-1.626-2.982-3.828-3.322-6.683-.18-1.527-.27-2.82-.27-3.87V5.406l-.006-.033c-.007-.034-.018-.29-.016-.675 0-.497-.09-.926-.307-1.274-.218-.34-.57-.64-1.057-.957l-.386-.267h5.19l-.388.265c-.503.332-.857.634-1.07.97-.206.34-.298.756-.315 1.25V19.808c0 1.98.14 3.59.428 4.847.29 1.26.807 2.387 1.55 3.364.907 1.22 2.082 2.193 3.493 2.933-1.33-.41-2.504-1.046-3.526-1.928zM65.427 3.5c-.213-.34-.435-.65-.678-.9-.14-.14-.307-.27-.47-.402h1.96c-.302.398-.574.832-.813 1.303zM104.145 19.583c-.767-1.303-1.864-2.36-3.272-3.156-.983-.558-2.077-.954-3.265-1.212 1.466-.548 2.653-1.296 3.547-2.256 1.188-1.274 1.79-2.878 1.786-4.735 0-1.2-.253-2.306-.765-3.305-.51-.994-1.234-1.847-2.166-2.548-.934-.703-2.052-1.24-3.347-1.61-1.3-.374-2.74-.56-4.323-.56-.888 0-1.745.046-2.575.14L87.48.59c-.546.058-1.357.123-2.426.19-1.064.068-1.984.1-2.758.1-.928 0-1.87-.03-2.827-.09L76.754.61l-.363-.023-.397-.024V1.98l.313.053c1.406.233 2.404.743 3.057 1.503l.002.002.004.004c.362.402.612.892.75 1.496.142.605.218 1.556.218 2.823v17.08c.008 2.11-.297 3.5-.762 4.096-.668.886-1.73 1.472-3.27 1.734l-.312.053v1.413l.394-.02.452-.022h.005l2.328-.136c1.094-.06 2.082-.09 2.965-.09 1.122 0 2.367.037 3.734.112.838.045 2.405.157 4.697.338h-.005c1.575.137 2.78.205 3.63.206 1.628 0 3.132-.193 4.513-.58 1.38-.388 2.574-.97 3.568-1.75.99-.78 1.746-1.7 2.256-2.758.51-1.06.76-2.253.76-3.567.003-1.61-.38-3.084-1.147-4.387zM84.898 2.473c-.398.292-.678.52-.86.71-.185.192-.322.416-.393.66-.068.238-.094.515-.094.853v.746c0 .11-.005.185-.005.185l-.004.017-.01.153-.002.015v21.185l.013.13.002.016.003.014v.01c.004.03.006.102.006.197v.748c.003.49.07.893.274 1.218.168.26.447.52.843.826-.835-.074-1.543-.112-2.12-.112-.5 0-1.074.03-1.71.088.393-.31.665-.562.828-.816.194-.32.26-.715.26-1.203V4.697c0-.49-.065-.885-.26-1.205-.196-.306-.546-.607-1.085-1.014l-.15-.116c.71.065 1.395.11 2.025.11.762 0 1.648-.048 2.615-.127l-.172.13zm13.683 1.81c.945 1.026 1.414 2.27 1.417 3.807-.003 1.52-.47 2.788-1.412 3.87-.53.606-1.206 1.118-2.003 1.552 1.17-1.37 1.773-3.125 1.766-5.22.007-2.2-.77-4.107-2.27-5.663 1.037.437 1.883.982 2.503 1.653zM86.27 6.89c-.004-1.442.176-2.475.475-3.056.357-.613.846-1.075 1.49-1.405.647-.33 1.43-.503 2.365-.503 1.178 0 2.22.277 3.156.83.938.556 1.662 1.314 2.19 2.298.526.983.792 2.092.793 3.352-.002 1.032-.223 2.01-.666 2.95-.446.94-1.03 1.666-1.76 2.2h-.004l-.003.003c-1.052.804-2.625 1.235-4.75 1.235h-3.29V6.89zm5.55 23.673c-2.113.003-3.553-.407-4.33-1.114-.78-.697-1.223-1.963-1.222-3.873v-9.15h3.493c2.046 0 3.57.177 4.542.502h.007l.006.003c.73.216 1.375.532 1.94.95.57.42 1.06.92 1.466 1.506.406.584.712 1.227.92 1.937.208.71.313 1.483.313 2.327-.003 1.99-.6 3.607-1.803 4.928-1.197 1.307-2.94 1.977-5.332 1.98zm9.688-3.458c-.548.924-1.322 1.688-2.348 2.3-.375.226-.783.416-1.205.588.556-.482 1.033-1.023 1.412-1.634.805-1.296 1.2-2.866 1.2-4.685.005-2.27-.712-4.208-2.09-5.773.882.52 1.638 1.125 2.24 1.833 1.08 1.27 1.606 2.683 1.61 4.304 0 1.13-.273 2.14-.82 3.065zM138.953 22.08h-.185l-.112.147c-1.078 1.407-2.128 2.625-3.148 3.65-1.02 1.028-2.02 1.876-3 2.547-.978.668-1.93 1.15-2.854 1.444-.93.298-1.877.445-2.85.446h-.475c-1.855 0-3.015-.428-3.574-1.146-.288-.366-.497-.844-.617-1.447-.12-.607-.187-1.48-.186-2.595V7.863c0-1.145.07-2.03.205-2.634.133-.602.362-1.086.68-1.472.718-.867 1.924-1.46 3.68-1.723l.32-.048V.59H111.545v1.395l.314.05c1.422.233 2.446.744 3.13 1.508l.003.004h.003c.36.392.61.855.746 1.417.138.56.216 1.54.216 2.898v17.08c.008 2.123-.307 3.513-.78 4.088v.002l-.004.005c-.667.884-1.745 1.47-3.313 1.734l-.315.053v1.395h25.677l2.932-10.14h-1.2zM120.588 2.472c-.497.345-.846.647-1.055.972-.214.337-.295.758-.297 1.253 0 .22-.004.377-.01.442-.01.104-.012.205-.012.303V27.364c0 .1.002.197.012.296.006.054.01.217.01.452.002.49.07.893.273 1.218.196.303.537.604 1.05.985h-4.34c.523-.38.867-.672 1.062-.977.193-.318.254-.715.258-1.206h.002c.015-.263.023-.52.023-.77V5.442c0-.25-.01-.504-.023-.768h-.002c-.004-.505-.062-.903-.26-1.222-.2-.3-.547-.59-1.087-.98l-.367-.275h5.132l-.37.275zm14.465 27.842h-2.365c1.11-.688 2.137-1.488 3.064-2.412l-.7 2.412zM175.345 22.238h-.19l-.288.396c-1.943 2.51-3.916 4.457-5.91 5.846-1.788 1.23-3.65 1.832-5.624 1.834h-2.08c-1.236 0-2.175-.16-2.8-.44-.606-.28-1.014-.734-1.27-1.447-.257-.723-.397-1.833-.396-3.302v-9.422h2.7c1.543 0 2.748.162 3.598.465.842.303 1.47.8 1.936 1.523.468.73.864 1.84 1.16 3.322l.06.302h1.361V9.117h-1.357l-.062.298c-.382 1.82-1.065 3.01-1.995 3.648-.932.647-2.525 1.01-4.764 1.008h-2.633V6.756c0-1.728.4-2.882 1.112-3.537.703-.66 2.01-1.045 3.94-1.043h1.268c2.412 0 4.327.596 5.795 1.762s2.6 3.003 3.37 5.55l.08.266H173.77l-.936-9.165H146.376V1.984l.314.05c1.423.233 2.446.744 3.13 1.51l.002.002.003.002c.362.39.608.854.747 1.417.138.56.216 1.54.215 2.897v17.08c.008 2.123-.306 3.513-.778 4.088l-.002.002-.004.005c-.668.884-1.745 1.47-3.314 1.734l-.314.053v1.395h27.374l2.887-9.98h-1.292zm-10.538-7.642c.123-.075.264-.18.414-.3v1.284c-.347-.267-.706-.48-1.07-.66.283-.124.503-.23.657-.324zm5.673-12.42l.217 1.31c-.307-.337-.602-.62-.887-.848-.203-.16-.434-.313-.68-.462h1.35zm-15.06.296c-.496.345-.845.646-1.055.97-.215.34-.297.76-.298 1.255 0 .22-.004.377-.01.446V5.14c-.01.1-.013.202-.013.303V27.364c0 .1.004.197.014.29.004.06.01.222.01.458 0 .49.07.893.272 1.217.198.304.54.603 1.05.985h-4.337c.523-.38.866-.672 1.062-.977.19-.318.254-.714.258-1.206h.002c.015-.263.022-.52.022-.77V5.442c0-.25-.008-.504-.022-.768h-.002c-.004-.48-.073-.878-.27-1.197-.202-.31-.55-.614-1.08-1.006l-.37-.272h5.14l-.373.274zm16.162 27.842h-2.47c.266-.158.53-.316.794-.487.686-.447 1.307-.924 1.857-1.43.186-.17.372-.355.558-.537l-.738 2.454zM201.726.59v1.385l.305.06c1.606.307 2.772.803 3.5 1.44.726.636 1.08 1.435 1.083 2.51.002.856-.283 1.985-.875 3.36l-6.736 15.52-8.004-18.35v-.002c-.38-.86-.557-1.59-.557-2.18.01-.78.245-1.242.718-1.565.482-.328 1.457-.59 2.873-.707l.487-.02.357-.017V.59H179.42v1.375l.292.065c1.274.29 2.22.81 2.883 1.547.668.742 1.527 2.273 2.512 4.548l.002.004 11.048 24.834h.986l10.14-23.003c.796-1.768 1.52-3.16 2.16-4.17.638-1.007 1.32-1.805 2.036-2.4.72-.597 1.545-1.06 2.486-1.394l.25-.088V.59h-12.49zm-5.076 29.643l-9.973-22.656c-.2-.474-.42-.954-.664-1.442-.244-.488-.54-1.05-.89-1.686v-.005c-.468-.83-1.026-1.565-1.673-2.2h5.012c-.228.25-.41.49-.537.727-.227.426-.338.902-.336 1.408 0 .813.235 1.726.687 2.753l9.207 21.204-.834 1.896zM208.62 3.15c-.27.334-.528.73-.784 1.173-.125-.402-.3-.77-.533-1.092-.256-.35-.613-.69-1.045-1.032h3.285c-.348.312-.667.628-.924.95zM253.017 30.767c-.922-.058-1.707-.27-2.37-.624-.653-.35-1.356-.96-2.087-1.837l-1.732-2.406c-.074-.117-.146-.226-.22-.322-.065-.088-.144-.19-.23-.31l-9.12-13.715 1.295-1.295.494-.472 2.193-2.104c3.262-3.114 6.16-5.007 8.643-5.702l.275-.077V.59h-13.262v1.419l.342.03c.97.085 1.705.377 2.252.857.54.48.795 1.052.8 1.822 0 .563-.185 1.155-.587 1.788-.398.633-1.148 1.49-2.238 2.532l-.004.005-8.25 8.04V7.864c0-1.162.067-2.06.194-2.673.127-.616.33-1.087.586-1.42.682-.885 1.77-1.472 3.34-1.735l.312-.052V.59h-14.844v1.395l.314.05c1.422.233 2.445.744 3.13 1.51l.003.002.002.002c.36.39.61.853.748 1.416.137.56.215 1.54.215 2.897v17.08c.008 2.123-.307 3.513-.78 4.088v.003l-.005.005c-.666.884-1.744 1.47-3.314 1.734l-.312.052v1.395h15.14v-1.4l-.32-.05c-1.528-.232-2.632-.742-3.356-1.49-.41-.456-.684-.96-.826-1.532-.146-.577-.227-1.524-.227-2.805v-5.587l3.632-3.513 6.97 10.486c.522.76.868 1.347 1.028 1.732.164.392.242.76.242 1.11-.01.6-.18.913-.514 1.13-.346.223-1.135.41-2.297.464l-.354.02v1.432h15.453V30.79l-.353-.023zm-8.603-28.59c-.893.684-1.768 1.422-2.625 2.22-.038-.817-.347-1.57-.92-2.22h3.544zm-16.573.295c-.495.345-.843.646-1.054.97-.215.34-.295.76-.297 1.255 0 .22-.005.377-.01.446V5.14c-.01.1-.013.202-.013.303V27.364c0 .1.004.197.012.29.005.06.01.222.01.458 0 .49.07.893.272 1.217.197.304.54.603 1.05.985h-4.34c.524-.38.868-.672 1.063-.977.193-.318.254-.714.26-1.206.016-.263.024-.52.024-.77V5.442c0-.25-.01-.504-.025-.768-.006-.506-.064-.903-.262-1.222-.2-.3-.55-.59-1.09-.98l-.37-.274h5.138l-.37.274zm14.538 27.842c.28-.414.45-.855.45-1.322-.003-.44-.138-.903-.378-1.397-.244-.49-.72-1.28-1.45-2.402v-.004L234.02 14.7l1.22-1.204 8.622 13.02.688.917 1.336 1.722c.31.398.69.783 1.13 1.16h-4.64zM291.978 30.775c-.994-.217-1.803-.586-2.445-1.103-.637-.51-1.227-1.295-1.754-2.36l-.997-2.062v-.002l-.12-.236-.083-.203-.014-.03-.082-.13L275.514 0h-1.073l-10.1 22.845c-1.12 2.53-2.187 4.384-3.165 5.543-.98 1.16-2.137 1.96-3.488 2.42l-.254.088v1.322h12.49V30.832l-.303-.06c-1.12-.22-2.014-.512-2.668-.856-.654-.347-1.127-.768-1.44-1.27-.312-.5-.474-1.098-.474-1.826-.002-.84.28-1.97.873-3.358l1.17-2.67h11.16l2.41 5.497c.478 1.106.698 1.91.694 2.295-.002.438-.113.775-.33 1.06-.22.285-.56.528-1.057.715-.46.172-1.316.318-2.52.407l-.348.025v1.425h15.183V30.84l-.295-.063zm-30.352-.46c.41-.36.77-.716 1.062-1.073.256-.31.51-.673.764-1.08.055.35.14.69.277 1.013.153.357.397.74.683 1.14h-2.787zm6.188-11.22l4.793-10.98 4.87 10.98h-9.663zm14.594 11.22c.436-.6.678-1.185.682-1.774-.006-.585-.262-1.34-.736-2.375l.002.003-.227-.497v.004L273.49 6.21l.883-2.03 9.362 21.054-.002-.002c.668 1.473 1.252 2.624 1.764 3.468.357.59.777 1.115 1.225 1.613h-4.312zM339.878 31.808c-1.22-.46-2.34-1.236-3.36-2.346-1.026-1.11-2.464-3.137-4.28-6.053-1.623-2.623-3.022-4.522-4.23-5.714-.9-.888-1.948-1.634-3.142-2.237 2.11-.305 3.79-.936 5.016-1.934 1.486-1.207 2.238-2.934 2.232-5.053 0-1.275-.28-2.446-.838-3.49-.555-1.04-1.346-1.92-2.353-2.63-1.01-.71-2.236-1.247-3.674-1.617-1.44-.37-3.063-.555-4.868-.555-.977 0-1.97.046-2.975.138h.002l-3.17.27h-.005c-1.34.135-2.846.202-4.508.202-1.05 0-1.973-.022-2.762-.067L304.963.61h-.01c-.154 0-.336-.008-.54-.022l-.4-.028v1.413l.304.06c1.46.275 2.492.792 3.14 1.51l.003.003h.002c.36.39.61.855.748 1.418.137.56.215 1.54.215 2.897v17.08c.008 2.124-.307 3.514-.78 4.09v.003l-.005.003c-.666.884-1.744 1.47-3.312 1.734l-.315.052v1.395h15.14V30.82l-.32-.05c-1.528-.232-2.632-.742-3.356-1.49-.41-.456-.684-.96-.826-1.532-.146-.577-.226-1.524-.226-2.805V16.02h3.56c1.018 0 1.81.1 2.35.276.533.174.988.49 1.387.977.407.494.905 1.332 1.47 2.495l1.2 2.508v.003c.962 1.97 2.087 3.723 3.376 5.256 1.287 1.533 2.666 2.76 4.137 3.675l.004.002c1.176.712 2.363 1.21 3.56 1.492 1.188.28 2.612.433 4.274.463l.384.008V31.9l-.246-.092zM313.054 2.473l-.152.11-.004.002-.004.003c-.455.35-.768.64-.95.952-.175.314-.237.698-.24 1.157 0 .22-.003.377-.01.446V5.14c-.007.1-.01.202-.01.303V27.364c0 .1.003.197.01.29.007.06.01.222.01.458.003.49.073.893.274 1.217.197.304.54.603 1.05.985h-4.34c.524-.38.868-.672 1.063-.977.194-.318.255-.714.26-1.206.017-.263.024-.52.024-.77V5.442c0-.25-.008-.504-.023-.768-.003-.483-.08-.893-.278-1.225-.21-.336-.562-.636-1.076-.982h.002l-.195-.14c.61.018 1.137.028 1.56.028 1 0 2.12-.042 3.335-.116l-.304.233zm14.32 1.872c1.115 1.164 1.656 2.485 1.66 4.04-.002.704-.14 1.375-.412 2.025-.275.65-.666 1.225-1.176 1.735-.51.51-1.164.97-1.975 1.38l-.017.007c.316-.32.605-.655.834-1.026.695-1.124 1.03-2.544 1.03-4.235 0-.99-.16-1.92-.478-2.786-.317-.867-.788-1.645-1.41-2.33-.138-.152-.31-.282-.462-.426.93.4 1.74.925 2.406 1.617zm-4.402 9.27h-.002c-.922.48-2.564.753-4.873.75h-3.674V6.89c-.002-1.55.207-2.663.564-3.302.324-.58.787-1.004 1.424-1.3.638-.294 1.454-.452 2.456-.452 1.352 0 2.533.28 3.568.827 1.035.55 1.83 1.315 2.406 2.31.578 1 .867 2.118.867 3.388 0 1.232-.25 2.303-.738 3.23-.49.93-1.148 1.592-1.998 2.024zm7.906 14.79c-1.807-1.59-3.52-3.947-5.117-7.07-.15-.332-.306-.65-.464-.954l-.486-.927c-.545-1.073-.92-1.773-1.146-2.13l-.004-.005c-.09-.14-.205-.28-.307-.42.3.187.598.37.873.583.752.58 1.512 1.356 2.273 2.332.763.978 1.626 2.27 2.587 3.876v.002c1.03 1.693 1.766 2.85 2.223 3.485.46.638 1.082 1.378 1.873 2.23l.006.007.005.006c.547.534 1.027.95 1.473 1.3-1.38-.556-2.65-1.31-3.79-2.312zM363.173.59v1.397l.318.048c1.413.217 2.562.764 3.485 1.642 1.068 1.01 1.648 2.736 1.648 5.25v10.518c.002 2.475-.287 4.395-.832 5.74-.7 1.724-1.727 3.035-3.087 3.972-1.36.934-2.97 1.403-4.867 1.405-1.295 0-2.533-.243-3.727-.73-1.192-.487-2.16-1.15-2.917-1.996-1.4-1.558-2.13-3.768-2.145-6.695V7.864c0-1.146.064-2.027.186-2.618.117-.582.338-1.073.662-1.492.705-.867 1.87-1.454 3.564-1.717l.316-.05V.59H340.64v1.395l.314.05c1.42.233 2.445.744 3.127 1.508l.003.002c.38.42.63.91.762 1.493.133.59.205 1.544.205 2.825v10.88c.002 3.335.422 5.916 1.303 7.764l.002.002c.654 1.353 1.54 2.517 2.648 3.478 1.107.96 2.4 1.693 3.867 2.197 1.47.505 3.076.756 4.816.755 1.633 0 3.164-.223 4.592-.673 1.428-.45 2.695-1.112 3.797-1.987 1.1-.873 2.004-1.94 2.705-3.186l.002-.002c.533-.956.914-2.01 1.148-3.16.234-1.156.346-2.653.348-4.51V8.384c-.002-1.317.133-2.4.39-3.24.255-.835.66-1.483 1.214-1.977.557-.495 1.31-.88 2.28-1.14l.278-.075V.59h-11.267zm-12.92 28.435c-1.877-1.626-2.982-3.828-3.322-6.683-.18-1.527-.27-2.82-.27-3.87V5.407l-.005-.033c-.008-.036-.018-.292-.016-.677-.003-.497-.09-.926-.308-1.274-.217-.34-.57-.64-1.057-.957l-.387-.267h5.19l-.386.266c-.502.332-.857.634-1.068.97-.207.34-.3.756-.316 1.25V19.807c0 1.98.14 3.59.428 4.847.29 1.26.807 2.387 1.55 3.364.907 1.222 2.083 2.194 3.493 2.934-1.33-.408-2.505-1.045-3.527-1.927zM368.94 3.5c-.214-.34-.435-.65-.68-.9-.136-.138-.304-.27-.468-.402h1.96c-.3.398-.573.832-.813 1.303zM298.69 14.495c-.288-.49-.685-.888-1.175-1.175-.496-.29-1.06-.436-1.66-.436-.602 0-1.164.145-1.66.435-.492.287-.89.684-1.174 1.175-.292.495-.437 1.06-.437 1.66 0 .6.145 1.164.438 1.66.286.49.685.888 1.175 1.174.496.29 1.06.436 1.66.436.602 0 1.164-.145 1.66-.437.49-.287.887-.685 1.174-1.176.29-.495.437-1.058.434-1.66.002-.6-.144-1.163-.435-1.66zm-2.804 3.334c0 .132-.03.163-.03.163s-.017.024-.138.026c-.397-.005-.746-.163-1.115-.56-.357-.393-.52-.807-.52-1.306 0-.502.16-.916.513-1.312.36-.39.707-.55 1.123-.554.12.002.136.026.136.026s.03.03.03.165v3.35z"/></g></svg>